<svg xmlns="http://www.w3.org/2000/svg" xmlns:xlink="http://www.w3.org/1999/xlink" width="285" height="180" viewBox="0 0 285 180">
  <defs>
    <style>
      .cls-1 {
        font-size: 88px;
        font-family: Sailec-Bold;
        font-weight: 700;
        letter-spacing: -0.065em;
      }

      .cls-2 {
        fill: url(#linear-gradient);
      }
    </style>
    <linearGradient id="linear-gradient" x1="-0.215" y1="1.288" x2="0.705" y2="1.444" gradientUnits="objectBoundingBox">
      <stop offset="0" stop-color="#fb8aa2"/>
      <stop offset="1" stop-color="#facc69"/>
    </linearGradient>
  </defs>
  <g id="Group_39" data-name="Group 39" transform="translate(448 -1346)">
    <text id="Icons_Logos" data-name="Icons &amp;
Logos" class="cls-1" transform="translate(-448 1413)"><tspan x="0" y="0">Icons &amp;</tspan><tspan x="0" y="89">Logos</tspan></text>
    <path id="Path_6" data-name="Path 6" class="cls-2" d="M834.178,2941.589c-3.178.27-7.24,0-7.24-6.093s4.467-6.759,7.24-6.708,5.993,3.2,5.993,6.708A6.219,6.219,0,0,1,834.178,2941.589Z" transform="translate(-1029.481 -1455.124)"/>
    <path id="Path_7" data-name="Path 7" class="cls-2" d="M834.7,3002.965s-7.248-1.059-6.442-6.52c.71-4.981,2.979-7.218,6.442-6.542s5.9,2.753,5.846,9.194-10.627,14.88-10.935,15-.269-4.592-.269-4.592a18.748,18.748,0,0,0,3.358-2.947A15.061,15.061,0,0,0,834.7,3002.965Z" transform="translate(-1030.624 -1500.245)"/>
  </g>
</svg>
